:SAMPLES-PER-SECOND 30
:FULLY-SPECIFIED
:DEGREES
398
root  33.3615 39.4 2.41581 173.843 54.6259 170.664
RightUpLeg  -13.3589 -14.7928 -4.03727
RightLeg  17.699 1.38213 2.61817
RightFoot  -2.09148 0.499773 -6.34095
RightToes  6.35927e-011 1.30204e-014 -6.03759e-014
Spine  9.41545 -1.95089 12.4658
Spine1  7.09545 -0.153643 -3.36741
HEad  -18.3797 -12.1799 -3.62303
LeftShoulder1  -0.589977 4.95101 -34.5961
LeftArm  -2.92835 10.9107 -37.0428
LeftForeArm  24.2582 -41.2924 -8.24521
LeftHand  -0.0719866 4.59239 7.92328
RightShoulder  -0.829671 -5.81745 29.245
RightArm  26.0268 6.31758 46.6248
RightForeArm  -3.19926 21.9075 5.13528
RightHand  -0.48016 4.43048 -5.95328
LeftUpLeg  -4.27448 6.12396 11.1183
LeftLeg  20.6171 -7.83478 -2.92831
LeftFoot  -3.40966 0.532466 -7.38544
LeftToes  -7.16024e-010 4.79583e-011 -5.98286e-011
399
root  33.0659 39.3835 1.95207 172.881 55.8728 169.949
RightUpLeg  -13.4797 -15.0149 -4.88069
RightLeg  18.2107 2.93314 2.60303
RightFoot  -2.07805 0.450604 -5.72541
RightToes  6.35927e-011 1.30204e-014 -6.03759e-014
Spine  9.74605 -1.92417 11.8885
Spine1  7.09559 -0.0643311 -3.51283
HEad  -20.5446 -10.7741 -3.88879
LeftShoulder1  -0.589347 4.95035 -34.5653
LeftArm  -2.77147 10.4884 -37.3781
LeftForeArm  24.4083 -40.1769 -7.88748
LeftHand  -0.0604274 4.74224 7.49881
RightShoulder  -0.774408 -5.68087 28.9346
RightArm  25.9175 7.52438 47.2352
RightForeArm  -3.41566 19.7369 5.597
RightHand  -0.481125 4.37903 -5.99297
LeftUpLeg  -3.83989 3.92414 11.9314
LeftLeg  20.16 -7.7578 -2.82644
LeftFoot  -3.00504 0.522995 -6.92065
LeftToes  -7.16024e-010 4.79583e-011 -5.98286e-011
400
root  32.6958 39.3332 1.48776 172.009 56.8619 169.556
RightUpLeg  -13.6243 -15.0328 -5.67281
RightLeg  18.9735 4.06873 2.50998
RightFoot  -2.19605 0.3885 -5.03629
RightToes  6.35927e-011 1.30204e-014 -6.03759e-014
Spine  10.0814 -1.99667 11.6331
Spine1  7.23628 0.0422909 -3.97529
HEad  -22.8369 -10.4881 -3.88435
LeftShoulder1  -0.520465 4.79294 -34.2102
LeftArm  -2.30245 9.99474 -37.9523
LeftForeArm  24.5023 -38.5284 -7.38977
LeftHand  -0.0486616 4.91673 7.12262
RightShoulder  -0.726595 -5.5604 28.6703
RightArm  24.18 9.41652 47.9041
RightForeArm  -1.88338 16.0476 6.91054
RightHand  -0.473352 4.39946 -5.889
LeftUpLeg  -3.60287 2.0712 12.6093
LeftLeg  20.757 -8.98853 -3.43278
LeftFoot  -2.69419 0.568888 -7.30626
LeftToes  -7.16024e-010 4.79583e-011 -5.98286e-011
401
root  32.2599 39.2606 1.00927 171.31 57.8062 169.532
RightUpLeg  -13.661 -14.8823 -6.41623
RightLeg  19.6883 4.86755 2.46167
RightFoot  -2.20998 0.31078 -4.07669
RightToes  6.35927e-011 1.30204e-014 -6.03759e-014
Spine  10.449 -2.09439 11.5872
Spine1  7.33778 0.149662 -4.46503
HEad  -24.7926 -10.7663 -3.5847
LeftShoulder1  -0.480644 4.6998 -34.0321
LeftArm  -1.11844 9.33515 -38.3199
LeftForeArm  24.2246 -36.325 -6.7857
LeftHand  -0.0412752 5.03899 6.91132
RightShoulder  -0.672588 -5.42425 28.328
RightArm  20.0652 11.9823 48.4979
RightForeArm  2.13632 10.8745 8.51616
RightHand  -0.422756 4.06008 -5.45704
LeftUpLeg  -3.39935 0.079528 13.0969
LeftLeg  21.9628 -10.8224 -4.45394
LeftFoot  -2.76374 0.606448 -7.8595
LeftToes  -7.16024e-010 4.79583e-011 -5.98286e-011
402
root  31.7729 39.1559 0.504019 170.813 58.8175 169.817
RightUpLeg  -13.6546 -14.4045 -7.1139
RightLeg  20.3188 5.46882 2.47317
RightFoot  -2.0846 0.226906 -2.97533
RightToes  6.35927e-011 1.30204e-014 -6.03759e-014
Spine  10.8044 -2.10741 11.4595
Spine1  7.31238 0.227988 -4.51996
HEad  -25.9949 -11.1398 -3.59221
LeftShoulder1  -0.508546 4.7647 -34.1718
LeftArm  0.59404 8.66078 -38.441
LeftForeArm  23.3962 -33.7371 -6.14965
LeftHand  -0.0307312 5.23069 6.63468
RightShoulder  -0.595536 -5.23059 27.7399
RightArm  16.642 14.439 48.9519
RightForeArm  5.09996 6.03733 8.99286
RightHand  -0.368337 3.31598 -5.15585
LeftUpLeg  -3.13845 -1.82409 13.3524
LeftLeg  23.3854 -12.9604 -5.76027
LeftFoot  -2.82418 0.637249 -8.31897
LeftToes  -7.16024e-010 4.79583e-011 -5.98286e-011
